<?xml version="1.0" standalone="no"?>
<!DOCTYPE svg PUBLIC "-//W3C//DTD SVG 20010904//EN"
 "http://www.w3.org/TR/2001/REC-SVG-20010904/DTD/svg10.dtd">
<svg version="1.0" xmlns="http://www.w3.org/2000/svg"
 width="552.000000pt" height="577.000000pt" viewBox="0 0 552.000000 577.000000"
 preserveAspectRatio="xMidYMid meet">

<g transform="translate(0.000000,577.000000) scale(0.100000,-0.100000)"
fill="#000000" stroke="none">
<path d="M1364 5264 c-124 -61 -287 -283 -329 -449 -30 -120 -13 -278 42 -392
79 -160 306 -285 461 -254 30 6 57 10 59 8 1 -2 9 -42 18 -88 8 -47 21 -104
30 -128 8 -24 15 -45 15 -46 0 -1 -42 -5 -94 -8 -193 -13 -421 -77 -586 -163
-290 -154 -521 -422 -609 -709 -73 -235 -68 -487 14 -732 69 -205 159 -348
330 -519 134 -134 249 -217 409 -294 104 -50 278 -109 379 -130 31 -6 57 -15
57 -19 0 -5 -15 -41 -34 -82 -68 -150 -92 -314 -52 -358 24 -26 77 -28 99 -3
10 11 21 49 27 93 10 81 45 190 91 280 l28 56 143 6 c294 13 515 77 741 214
32 19 59 34 60 32 56 -87 193 -228 270 -279 l39 -25 -5 -120 c-7 -145 -37
-272 -96 -399 -48 -104 -50 -127 -15 -155 52 -41 89 -20 140 80 65 130 99 257
119 441 4 32 10 58 14 58 5 0 46 -18 92 -39 104 -48 270 -103 414 -137 141
-33 447 -44 587 -22 l87 14 7 -42 c8 -57 -13 -241 -35 -306 -10 -30 -30 -77
-45 -105 -44 -87 -28 -143 41 -143 39 0 75 40 115 128 45 99 59 173 65 353 l6
166 63 27 c208 91 402 273 503 473 58 116 75 201 74 358 -2 147 -19 241 -61
334 l-20 44 40 64 c88 140 103 251 47 362 -41 82 -105 132 -274 216 -154 77
-295 125 -464 159 -68 14 -125 27 -128 30 -3 2 21 82 54 178 55 164 58 178 58
270 0 93 -1 98 -31 135 -17 21 -51 48 -75 60 -96 49 -478 56 -686 14 -258 -53
-456 -156 -621 -322 l-72 -73 -78 75 c-137 134 -259 221 -413 296 -94 46 -255
104 -341 123 -54 12 -57 14 -67 54 -12 45 -15 95 -13 169 l2 47 53 0 c136 1
293 62 393 153 76 69 129 153 160 254 23 73 26 95 22 195 -5 135 -26 200 -94
301 -79 116 -197 201 -302 217 -79 13 -128 -2 -160 -50 -21 -30 -23 -43 -18
-90 32 -277 -1 -450 -105 -564 -61 -67 -111 -89 -204 -89 -113 0 -191 49 -248
157 -16 31 -22 59 -22 116 0 80 4 92 104 279 22 41 42 90 46 109 8 44 -27 117
-66 137 -36 19 -115 19 -155 -1z m-142 -1797 c327 -161 385 -637 113 -925 -38
-41 -89 -82 -124 -101 l-60 -32 -58 61 -59 60 32 10 c43 15 121 84 143 129 28
57 65 220 65 286 -1 33 -8 76 -17 96 -23 55 -86 119 -142 145 -46 22 -50 22
-53 6 -12 -62 -27 -97 -55 -129 -57 -65 -134 -80 -216 -43 -24 11 -46 18 -48
16 -11 -10 -53 -211 -53 -249 0 -57 15 -107 45 -151 14 -20 25 -39 25 -41 0
-3 -20 -5 -44 -5 -24 0 -62 -7 -84 -14 l-41 -15 -36 72 c-112 228 -71 511 102
698 65 70 136 116 223 147 54 19 82 22 166 20 93 -3 106 -6 176 -41z m1129
-257 c230 -44 399 -268 399 -530 0 -153 -64 -318 -167 -429 l-58 -63 -75 39
c-41 21 -77 39 -79 40 -2 1 12 20 32 42 49 54 60 80 87 191 12 52 24 103 27
113 4 14 -3 17 -43 17 -130 0 -220 117 -181 236 9 27 13 51 11 54 -10 9 -128
2 -159 -10 -53 -20 -104 -61 -134 -109 -39 -60 -85 -251 -79 -325 5 -65 42
-140 90 -180 l37 -32 -30 -19 c-16 -11 -38 -37 -48 -58 l-19 -38 -56 51 c-65
60 -115 138 -147 230 -19 53 -23 86 -23 185 0 104 4 130 27 196 37 110 86 187
166 261 126 119 271 167 422 138z"/>
</g>
</svg>
