<?xml version="1.0" encoding="UTF-8" standalone="no"?>
<!DOCTYPE svg PUBLIC "-//W3C//DTD SVG 1.1//EN" "http://www.w3.org/Graphics/SVG/1.1/DTD/svg11.dtd">
<svg xmlns="http://www.w3.org/2000/svg" xmlns:xlink="http://www.w3.org/1999/xlink" version="1.1" width="612pt" height="792pt" viewBox="0 0 612 792">
<g enable-background="new">
<clipPath id="cp0">
<path transform="matrix(1,0,0,-1,0,792)" d="M 23.64706 792 L 23.64706 0 L 588.3529 0 L 588.3529 792 Z "/>
</clipPath>
<g clip-path="url(#cp0)">
<clipPath id="cp1">
<path transform="matrix(1,0,0,-1,0,792)" d="M 0 0 L 612 0 L 612 792 L 0 792 Z "/>
</clipPath>
<g clip-path="url(#cp1)">
<!-- <path transform="matrix(1,0,0,-1,0,792)" d="M 588.3529 792 L 588.3529 0 L 23.64706 0 L 23.64706 792 Z " fill="#ffffff"/> -->
<path transform="matrix(1,0,0,-1,0,792)" d="M 44.45153 273.3974 C 44.45082 325.6793 45.93388 377.9054 47.41694 430.1739 C 48.89929 482.4353 50.38165 534.7306 50.38165 587.1212 C 50.38165 590.1847 50.37671 593.2426 50.36612 596.3068 C 50.29482 617.4318 49.11741 638.8934 48.32329 660.0014 C 48.03388 667.6793 47.18259 676.7372 47.18259 685.4739 C 47.18259 691.3271 47.56518 697.0348 48.75388 702.0889 C 50.62659 710.0485 57.15953 709.4548 60.54424 703.3962 C 66.72353 692.3372 67.42376 675.6741 68.124 663.0896 C 69.95435 630.1758 71.976 597.2739 74.18471 564.3868 C 78.60424 498.6127 83.77976 432.8979 89.70988 367.2621 C 90.66494 356.6936 91.70118 346.1344 92.736 335.5744 C 96.156 300.6664 98.29906 265.752 100.3885 230.7755 C 101.2165 216.9219 101.8271 203.0181 101.8271 189.1242 C 101.8271 178.1125 101.4438 167.1064 100.4795 156.1348 C 98.60612 134.7981 94.84235 109.0348 80.79388 92.556 C 72.91412 83.31529 62.96188 87.24494 56.25176 100.836 C 49.16188 115.1944 48.95506 133.4224 47.964 149.2976 C 45.37835 190.7096 44.45153 232.0736 44.45153 273.3974 M 73.74424 460.6948 C 73.74424 463.9856 73.69765 467.2765 73.59459 470.5645 C 73.53318 472.5311 72.97624 494.0096 69.29506 491.9901 C 66.19271 490.2889 65.40635 479.6252 65.40635 475.9779 C 65.40635 475.8311 65.40776 475.6948 65.41059 475.572 C 65.51365 470.3548 65.66471 465.1066 66.51388 459.9748 C 66.95012 457.3405 67.56988 454.7428 68.45647 452.2687 C 68.67318 451.6645 69.04659 450.5958 69.516 449.6111 C 70.02494 448.5452 70.64541 447.5774 71.29906 447.408 C 72.012 447.2231 72.72918 447.8096 73.12871 448.5318 C 73.71035 449.5821 73.85012 451.3285 73.85012 453.1031 C 73.85012 453.9226 73.82047 454.7471 73.79082 455.5129 C 73.76047 456.2795 73.73082 456.9875 73.73082 457.5692 C 73.73082 457.6129 73.73153 457.6553 73.73153 457.6976 C 73.74 458.6965 73.74424 459.696 73.74424 460.6948 " fill="#ebebeb"/>
<path transform="matrix(1,0,0,-1,0,792)" d="M 427.1696 275.6068 C 431.6675 274.0744 434.0718 269.1854 432.5393 264.6875 C 431.0068 260.1896 426.1186 257.7847 421.6207 259.3172 C 417.1221 260.8496 414.7179 265.7386 416.2504 270.2365 C 417.7828 274.7344 422.6711 277.1386 427.1696 275.6068 M 432.2562 290.5384 C 419.5115 294.8802 405.66 288.0685 401.3188 275.3231 C 396.9769 262.5784 403.7887 248.7268 416.5334 244.3856 C 429.2781 240.0431 443.1289 246.8555 447.4715 259.6002 C 451.8127 272.3449 445.0009 286.1965 432.2562 290.5384 " fill="#2c5274"/>
<path transform="matrix(1,0,0,-1,0,792)" d="M 448.3292 321.8329 C 474.7292 310.2459 489.0085 281.208 482.0696 253.2254 L 442.3659 266.7508 C 442.608 272.8094 439.7492 278.6231 434.8031 282.1299 L 448.3292 321.8329 M 438.6311 325.1365 L 425.1056 285.4327 C 419.0471 285.6748 413.2341 282.816 409.7273 277.8706 L 370.0235 291.3967 C 381.6113 317.796 410.6485 332.076 438.6311 325.1365 M 416.2504 270.2365 C 417.7828 274.7344 422.6711 277.1386 427.1696 275.6068 C 431.6675 274.0744 434.0718 269.1854 432.5393 264.6875 C 431.0068 260.1896 426.1186 257.7847 421.6207 259.3172 C 417.1221 260.8496 414.7179 265.7386 416.2504 270.2365 M 406.4231 268.1725 C 406.1809 262.1146 409.0405 256.3016 413.9859 252.7941 L 400.4605 213.0911 C 374.0612 224.6781 359.7805 253.716 366.72 281.6986 L 406.4231 268.1725 M 410.1579 209.7868 L 423.684 249.4906 C 429.7419 249.2485 435.5555 252.1073 439.0624 257.0534 L 478.7661 243.5273 C 467.1784 217.128 438.1412 202.8473 410.1579 209.7868 M 437.0682 343.248 C 431.988 344.1035 426.9056 344.4332 421.8868 344.2687 L 417.5393 356.8969 L 396.6889 352.7732 L 397.4774 339.4249 C 392.7205 337.6419 388.1478 335.3936 383.8313 332.7141 L 373.7414 341.4875 L 357.7454 327.4906 L 365.0944 316.3384 C 361.8988 312.4638 359.0576 308.2376 356.6336 303.6918 L 343.5148 306.2428 L 336.6607 286.1238 L 348.6092 280.1351 C 347.7529 275.0548 347.4233 269.9732 347.5885 264.9536 L 334.9602 260.6068 L 339.084 239.7565 L 352.4322 240.5442 C 354.2146 235.7873 356.4635 231.2153 359.1431 226.8988 L 350.3696 216.8082 L 364.3659 200.8122 L 375.5181 208.1612 C 379.3927 204.9656 383.6195 202.1245 388.1654 199.7005 L 385.6144 186.5816 L 405.7334 179.7275 L 411.7214 191.676 C 416.8016 190.8198 421.884 190.4901 426.9028 190.6553 L 431.2496 178.0271 L 452.1 182.1508 L 451.3115 195.4991 C 456.0692 197.2814 460.6419 199.5304 464.9576 202.2099 L 475.0482 193.4365 L 491.0435 207.4327 L 483.696 218.5849 C 486.8901 222.4595 489.732 226.6864 492.1553 231.2322 L 505.2748 228.6812 L 512.1282 248.8002 L 500.1805 254.7882 C 501.036 259.8692 501.3656 264.9508 501.2012 269.9704 L 513.8287 274.3165 L 509.7056 295.1668 L 496.3574 294.3791 C 494.5744 299.136 492.3254 303.7087 489.6466 308.0252 L 498.4193 318.1158 L 484.4231 334.1111 L 473.2708 326.7628 C 469.3962 329.9576 465.1701 332.7995 460.6242 335.2228 L 463.1753 348.3416 L 443.0569 355.1958 L 437.0682 343.248 " fill="#3c6794"/>
<path transform="matrix(1,0,0,-1,0,792)" d="M 445.8198 330.3522 C 411.1426 342.1659 373.3186 323.5645 361.5042 288.8873 C 349.6906 254.2094 368.292 216.3854 402.9699 204.5718 C 437.6478 192.7574 475.4718 211.3588 487.2854 246.0374 C 499.0984 280.7146 480.4976 318.5386 445.8198 330.3522 M 446.7621 333.1193 C 482.9668 320.7854 502.3864 281.2976 490.0525 245.0944 C 477.7186 208.8904 438.2308 189.4701 402.0268 201.8047 C 365.8235 214.1379 346.404 253.6256 358.7372 289.8304 C 371.0711 326.0336 410.5588 345.4525 446.7621 333.1193 " fill="#2c5274"/>
<path transform="matrix(1,0,0,-1,0,792)" d="M 432.2824 326.3358 C 406.3624 329.8362 380.7367 315.8026 370.0242 291.3967 L 384.0459 286.6193 C 381.6042 283.8113 379.2861 280.9885 377.0852 278.1671 L 366.72 281.6986 C 365.0414 274.9292 364.6151 268.1012 365.2913 261.4708 C 360.3092 253.668 356.2108 246.18 352.8854 239.4219 C 352.7372 239.7974 352.5734 240.1666 352.4322 240.5442 L 339.084 239.7565 L 334.9602 260.6068 L 347.5885 264.9544 C 347.4233 269.9732 347.7529 275.0548 348.6092 280.1351 L 336.6607 286.1238 L 343.5148 306.2428 L 356.6336 303.6911 C 359.0576 308.2376 361.8988 312.4638 365.0936 316.3384 L 357.7454 327.4906 L 373.7407 341.4868 L 383.8313 332.7141 C 388.1478 335.3936 392.7205 337.6419 397.4774 339.4249 L 396.6889 352.7732 L 417.5393 356.8969 L 421.8868 344.2687 C 426.9056 344.4332 431.988 344.1035 437.0682 343.248 L 443.0569 355.1958 L 463.176 348.3416 L 461.4416 339.4264 C 450.8887 335.8038 441.1892 331.3645 432.2824 326.3358 " fill="#2b577e"/>
<path transform="matrix(1,0,0,-1,0,792)" d="M 442.1259 331.4887 C 408.4969 340.8247 372.9 322.3376 361.5049 288.8873 C 357.3367 276.6529 356.9591 264.0282 359.7332 252.2908 C 359.0224 251.0513 358.3348 249.8259 357.6699 248.6146 C 353.9527 261.7024 354.0282 276.0049 358.7379 289.8304 C 370.9955 325.8099 410.0725 345.2075 446.0922 333.3381 C 444.756 332.7339 443.4318 332.1191 442.1259 331.4887 " fill="#264560"/>
<path transform="matrix(1,0,0,-1,0,792)" d="M 493.7633 233.8751 C 493.5141 233.8024 504.2231 231.348 504.2231 231.348 L 509.6146 247.4626 C 509.6146 247.4626 503.9816 236.8842 493.7633 233.8751 " fill="#6089ad"/>
<path transform="matrix(1,0,0,-1,0,792)" d="M 337.5346 491.1007 L 333.4525 463.9786 C 331.9002 463.7125 330.3918 463.1139 329.0393 462.1758 L 304.1308 474.5033 C 301.344 475.8826 300.5824 479.5412 302.6358 481.8769 C 308.5144 488.5631 316.488 493.5148 325.8424 495.6021 C 328.0793 496.1012 330.3141 496.4181 332.5327 496.5628 C 335.5574 496.7605 337.9856 494.0986 337.5346 491.1007 M 299.7014 466.4075 L 324.3311 454.2176 C 324.0692 451.6892 324.6748 449.0809 326.1699 446.8779 L 308.8122 425.6809 C 306.9 423.3466 303.324 423.3551 301.4266 425.7014 C 297.3367 430.7576 294.3212 436.8113 292.8085 443.5885 C 291.3099 450.3049 291.4504 457.0052 292.9631 463.2713 C 293.6781 466.2346 296.9696 467.7593 299.7014 466.4075 M 334.1598 442.0807 C 335.3209 441.9572 336.4984 442.0165 337.6468 442.2607 L 352.9193 419.3774 C 354.6106 416.8433 353.5306 413.3647 350.6781 412.2953 C 348.7955 411.5894 346.8409 411.0056 344.8228 410.5546 C 335.5722 408.4906 326.3541 409.5346 318.2562 412.9927 C 315.3254 414.2442 314.388 417.9367 316.4075 420.4024 L 334.1598 442.0807 M 341.9668 452.58 C 341.6908 448.9165 338.4981 446.1692 334.8339 446.4445 C 331.1704 446.7198 328.4231 449.9132 328.6984 453.5767 C 328.9736 457.2409 332.1671 459.9875 335.8306 459.7122 C 339.4948 459.4376 342.2414 456.2442 341.9668 452.58 M 360.4384 424.7216 L 345.0459 447.7835 C 345.5619 448.7294 345.9296 449.7353 346.1499 450.7687 L 373.0991 456.7835 C 376.1195 457.4576 378.9713 455.1148 378.8979 452.0216 C 378.6529 441.5993 374.6527 431.7699 367.9468 424.1887 C 365.8864 421.8579 362.1656 422.1332 360.4384 424.7216 M 344.1424 459.768 C 343.9348 460.0412 343.7146 460.3073 343.4781 460.5642 C 343.1428 460.9299 342.7864 461.2645 342.4158 461.5744 L 347.4367 494.94 C 358.9659 491.5948 368.8327 483.5562 374.3195 472.5487 C 375.6981 469.7831 374.1071 466.4562 371.0915 465.7821 L 344.1424 459.768 M 328.5494 529.4852 L 325.0115 536.5405 C 322.3426 536.2059 319.6751 535.7449 317.016 535.1513 C 314.3576 534.5576 311.7466 533.8405 309.1885 533.0089 L 308.9866 525.1193 C 308.7558 516.1454 298.752 510.9198 291.2548 515.8574 L 284.6344 520.2176 C 280.3348 516.9678 276.3473 513.2965 272.7219 509.2369 L 276.4955 502.2946 C 280.7831 494.4078 274.7329 484.8805 265.7704 485.4078 L 257.8828 485.8715 C 255.7496 480.8647 254.1226 475.6941 253.0087 470.4212 L 259.7704 466.2826 C 267.4271 461.5955 266.9499 450.3198 258.9254 446.2955 L 251.8708 442.7576 C 252.2054 440.0887 252.6664 437.4212 253.26 434.7621 C 253.8529 432.1038 254.5701 429.4927 255.4016 426.9353 L 263.292 426.7327 C 272.2659 426.5019 277.4915 416.4981 272.5539 409.0009 L 268.1936 402.3805 C 271.4435 398.0809 275.1148 394.0934 279.1744 390.4673 L 286.1167 394.2416 C 294.0035 398.5292 303.5308 392.4784 303.0035 383.5172 L 302.5391 375.6289 C 307.5459 373.4958 312.7165 371.8687 317.9894 370.7548 L 322.128 377.5158 C 326.8151 385.1725 338.0915 384.696 342.1158 376.6715 L 345.6536 369.6169 C 348.3226 369.9515 350.9901 370.4125 353.6492 371.0061 C 356.3075 371.5991 358.9179 372.3162 361.4767 373.1478 L 361.6793 381.0381 C 361.9094 390.012 371.9132 395.2376 379.4104 390.3 L 386.0315 385.9398 C 390.3296 389.1896 394.3179 392.8609 397.9433 396.9198 L 394.1696 403.8621 C 389.8821 411.7496 395.9322 421.2769 404.8941 420.7496 L 412.7824 420.2852 C 414.9155 425.292 416.5426 430.4633 417.6558 435.7362 L 410.8948 439.8748 C 403.2381 444.5612 403.7146 455.8369 411.7391 459.8619 L 418.7944 463.3998 C 418.4598 466.068 417.9988 468.7355 417.4052 471.3946 C 416.8115 474.0536 416.0951 476.664 415.2635 479.2221 L 407.3732 479.4247 C 398.3993 479.6548 393.1736 489.6586 398.1113 497.1565 L 402.4715 503.7769 C 399.2216 508.0765 395.5496 512.064 391.4908 515.6894 L 384.5485 511.9158 C 376.6616 507.6282 367.1344 513.6784 367.6616 522.6402 L 368.1254 530.5285 C 363.1193 532.6609 357.9487 534.2887 352.6751 535.4019 L 348.5365 528.6409 C 343.8501 520.9842 332.5736 521.4607 328.5494 529.4852 " fill="#6699c4"/>
<path transform="matrix(1,0,0,-1,0,792)" d="M 279.6939 453.0388 C 279.6939 454.4315 279.7461 455.8348 279.852 457.2466 C 282.1496 487.8381 308.9082 510.8576 339.5005 508.56 C 368.6809 506.3675 390.9713 481.92 390.9713 453.1186 C 390.9713 451.7252 390.9191 450.3226 390.8132 448.9108 C 388.7033 420.8167 365.9668 399.1101 338.5744 397.5318 L 327.2012 409.1661 C 328.7675 408.8774 330.3642 408.6699 331.9871 408.5478 C 356.5419 406.7033 378.0191 425.1791 379.8628 449.7339 C 379.9482 450.8647 379.9899 451.9941 379.9899 453.1108 C 379.9899 476.2292 362.1007 495.8499 338.6781 497.6096 C 314.1233 499.4541 292.6461 480.9784 290.8016 456.4235 C 290.7169 455.292 290.6753 454.1633 290.6746 453.0466 C 290.6739 440.4021 296.0266 428.8045 304.7082 420.6021 C 298.2466 422.2433 292.0299 424.7104 286.2925 428.1099 L 286.2925 428.1106 L 286.2847 428.1148 C 286.0334 428.2638 285.7842 428.4134 285.5351 428.5659 C 285.5598 428.9576 285.5718 429.3487 285.5718 429.7412 C 285.5718 434.1875 283.9751 438.6374 280.7718 442.1569 C 280.0645 445.6856 279.6939 449.3266 279.6939 453.0388 " fill="#5d8cb4"/>
<path transform="matrix(1,0,0,-1,0,792)" d="M 303.9388 562.0271 L 303.2492 555.6318 L 306.8386 551.2136 L 306.3092 549.9812 L 304.7732 550.5988 L 306.7249 546.0833 L 305.6456 542.2694 L 300.7108 540.5527 L 295.5692 542.3379 L 294.3402 547.4944 L 296.1007 553.5042 L 296.6689 562.3045 L 303.9388 562.0271 " fill="#7b4f34"/>
<path transform="matrix(1,0,0,-1,0,792)" d="M 307.5974 559.8064 L 312.2322 623.5129 L 331.5332 639.7539 L 320.7416 663.6113 L 285.9826 636.4616 L 282.6049 625.9115 L 292.7492 557.7649 L 307.5974 559.8064 " fill="#7da4b2"/>
<path transform="matrix(1,0,0,-1,0,792)" d="M 371.7409 643.8381 C 373.2508 644.5991 374.7551 645.4849 375.7864 646.8247 C 376.068 647.1911 376.3002 647.5885 376.5889 647.9386 C 386.6584 660.1609 380.0654 680.5736 359.8715 680.3816 C 349.0073 680.2786 339.0784 671.4607 337.3518 661.2409 C 334.5099 661.0602 331.2339 659.9555 329.1169 659.5899 C 328.6793 659.5144 328.2021 659.4176 327.9169 659.0866 C 327.6642 658.7915 327.6275 658.3835 327.6184 658.0045 C 327.5259 654.4355 328.8233 650.8694 331.2007 648.1624 C 331.3744 647.964 331.5635 647.7642 331.8127 647.6633 C 332.1162 647.5412 332.4635 647.5835 332.7918 647.6315 C 335.088 647.9654 337.3567 648.4814 339.576 649.1527 C 342.5421 643.8692 348.6791 640.8184 354.7779 640.2332 C 360.6092 639.6734 366.5089 641.2038 371.7409 643.8381 " fill="#7b4f34"/>
<path transform="matrix(1,0,0,-1,0,792)" d="M 341.472 650.4671 C 341.1078 650.3019 340.7336 650.1282 340.4654 649.8325 C 339.7214 649.0101 340.1104 647.7134 340.5593 646.7005 C 341.388 644.8285 342.3092 642.9621 343.6849 641.4466 C 345.0607 639.9304 346.9567 638.7854 349.0031 638.7169 C 349.7414 638.6922 350.5313 638.8292 351.0755 639.3296 C 351.6205 639.8294 351.7969 640.7696 351.2936 641.3118 C 351.0113 641.6153 350.592 641.7374 350.2214 641.9245 C 349.2155 642.4327 348.5605 643.4435 348.1129 644.4784 C 347.6188 645.6212 347.3308 646.9758 347.8948 648.0868 C 348.6035 649.4838 350.3188 649.9482 351.7701 650.5391 C 354.2527 651.5492 355.2642 655.0186 351.8696 654.8894 C 348.768 654.7715 344.3005 651.7489 341.472 650.4671 " fill="#333333"/>
<path transform="matrix(1,0,0,-1,0,792)" d="M 68.67459 594.9028 L 64.02212 589.9207 C 61.02494 586.7111 55.58894 587.4459 53.83129 591.4708 C 52.79647 593.8419 52.956 597.1828 56.11835 601.8042 L 68.18471 612.4151 L 72.08824 610.6913 L 73.76471 599.5991 L 68.67459 594.9028 " fill="#534741"/>
<path transform="matrix(1,0,0,-1,0,792)" d="M 205.1266 589.056 L 129.912 583.4908 L 71.33788 596.8631 L 71.65976 612.2612 L 121.4838 619.3299 C 121.4838 619.3299 187.8522 660.2188 189.9628 657.1624 C 192.0734 654.1073 205.1266 589.056 205.1266 589.056 " fill="#514943"/>
<path transform="matrix(1,0,0,-1,0,792)" d="M 65.08094 697.9729 L 58.62212 695.7953 C 54.46024 694.392 50.02447 697.6186 50.38729 701.9951 C 50.60118 704.5736 52.32776 707.4395 57.30282 710.0061 L 72.96 713.6202 L 75.57812 710.2511 L 71.78965 699.6918 L 65.08094 697.9729 " fill="#534741"/>
<path transform="matrix(1,0,0,-1,0,792)" d="M 182.4176 628.0758 L 113.5687 658.8692 L 68.35624 698.4353 L 75.94659 711.8358 L 123.1574 694.4153 C 123.1574 694.4153 200.9795 698.9139 201.3875 695.2221 C 201.7962 691.5311 182.4176 628.0758 182.4176 628.0758 " fill="#514943"/>
<path transform="matrix(1,0,0,-1,0,792)" d="M 317.6379 691.5282 C 302.1191 704.2814 279.7729 705.9162 259.1365 705.6275 C 240.8492 705.3713 222.5668 704.0816 204.42 701.7678 C 197.9682 700.9447 190.9984 699.7334 186.576 695.1713 C 183.6635 692.1664 182.3054 688.1294 181.1711 684.2033 C 172.6934 654.8809 172.0433 623.6238 179.2984 594.1581 C 180.1052 590.8814 181.1061 587.4586 183.6282 585.1045 C 185.5144 583.3447 188.0569 582.3762 190.5685 581.5715 C 215.6386 573.5379 243.3233 577.7859 268.9468 584.6075 C 287.4021 589.5212 306.0826 596.0661 319.9969 608.6365 C 345.4214 631.6052 343.5056 670.2713 317.6379 691.5282 " fill="#7da4b2"/>
<path transform="matrix(1,0,0,-1,0,792)" d="M 317.2842 508.0235 L 300.0727 499.8466 C 297.1454 498.4553 295.8995 494.9541 297.2908 492.0268 C 298.6821 489.0988 302.1826 487.8529 305.1106 489.2442 L 322.3214 497.4212 C 325.2494 498.8125 326.4953 502.3136 325.104 505.2409 C 323.7127 508.1689 320.2115 509.4148 317.2842 508.0235 " fill="#2e414c"/>
<path transform="matrix(1,0,0,-1,0,792)" d="M 305.2045 503.0725 C 305.8722 498.1539 306.4906 493.2296 307.0609 488.2991 C 307.2219 486.9028 305.0605 486.5082 304.8974 487.9179 C 304.3278 492.8485 303.7094 497.7727 303.0402 502.6913 C 302.8518 504.0861 305.0132 504.4786 305.2045 503.0725 " fill="#435b6e"/>
<path transform="matrix(1,0,0,-1,0,792)" d="M 311.4388 506.0344 C 312.1066 501.1165 312.7249 496.1915 313.2953 491.2616 C 313.4562 489.8654 311.2948 489.4708 311.1318 490.8798 C 310.5621 495.8104 309.9438 500.7346 309.2753 505.6532 C 309.0861 507.048 311.2475 507.4405 311.4388 506.0344 " fill="#435b6e"/>
<path transform="matrix(1,0,0,-1,0,792)" d="M 317.1875 508.0059 C 317.856 503.088 318.4751 498.1638 319.044 493.2332 C 319.2056 491.8369 317.0435 491.4424 316.8812 492.852 C 316.3115 497.7819 315.6925 502.7061 315.0247 507.6247 C 314.8348 509.0195 316.9969 509.412 317.1875 508.0059 " fill="#435b6e"/>
<path transform="matrix(1,0,0,-1,0,792)" d="M 322.9024 507.4475 C 323.6146 504.7405 324.2929 502.0235 324.9233 499.2918 C 325.3878 497.2786 326.6732 494.3139 325.8282 492.1708 C 325.02 490.1238 322.2078 488.7925 320.4438 487.6856 C 318.0007 486.1525 315.4624 484.776 312.8527 483.5732 C 310.5092 482.4932 308.1078 481.5649 305.6725 480.7525 C 303.7659 480.1158 301.8586 479.5687 300.3289 481.0398 C 297.0085 484.2318 296.6576 490.5671 296.2016 494.9499 C 295.9299 497.5602 300.0515 498.4546 300.3254 495.8245 C 300.7052 492.1765 301.1245 488.58 302.6386 485.2673 C 303.2075 484.0242 303.228 484.1908 304.6038 484.6355 C 305.6386 484.9701 306.6621 485.3485 307.6772 485.7466 C 309.4553 486.4447 311.2094 487.2212 312.9261 488.0753 C 314.6435 488.9287 316.3278 489.8548 317.9704 490.8544 C 318.8576 491.3951 319.9193 491.9746 320.7184 492.6311 C 321.8329 493.5466 321.6918 493.5487 321.6148 494.7685 C 321.5019 496.5678 320.7861 498.5026 320.3725 500.2362 C 319.8671 502.3567 319.332 504.4673 318.7786 506.5729 C 318.1165 509.0951 322.2431 509.9562 322.9024 507.4475 " fill="#afbdc6"/>
<path transform="matrix(1,0,0,-1,0,792)" d="M 319.1965 516.7652 C 319.9779 514.8819 320.472 512.9301 321.2732 511.0539 C 321.4108 510.7638 321.5435 510.4744 321.6685 510.1878 C 322.7541 507.7059 319.0765 505.6814 317.8532 508.164 C 317.5369 508.8056 317.2376 509.4529 316.9567 510.108 C 316.1598 511.6151 315.0649 512.8864 313.1322 512.5722 C 310.5953 512.16 307.9744 510.8061 305.7261 509.5885 C 303.3431 508.2974 301.1202 506.7494 299.0915 504.9473 C 297.8915 503.8821 297.5951 503.9464 297.9664 502.4351 C 298.2967 501.0889 298.6468 499.7478 298.9864 498.4045 C 299.3329 497.0365 298.3927 496.116 297.3078 495.9007 C 296.5242 495.3212 295.4372 495.2209 294.6275 496.1661 C 292.2296 498.9671 289.7344 502.8685 292.056 506.592 C 293.2475 508.5035 295.6616 509.4819 297.5294 510.5633 C 299.7699 511.8607 302.0104 513.1588 304.2508 514.4555 C 307.4153 516.2894 311.8567 520.1386 315.7595 519.6078 C 317.4515 519.3784 318.564 518.2906 319.1965 516.7652 " fill="#2e414c"/>
<path transform="matrix(1,0,0,-1,0,792)" d="M 310.9151 476.196 C 312.1779 470.5955 313.8522 465.2012 315.6551 459.7532 C 316.8614 456.1073 317.9485 452.5087 319.5424 449.0167 C 321.1129 445.5762 322.7838 442.1809 324.2393 438.6904 C 325.3278 436.0807 329.5631 428.0125 326.2595 425.8666 C 324.2619 424.5692 321.4271 426.4179 319.7718 427.4993 C 317.3202 429.1024 314.8214 430.7915 312.4991 432.5442 C 305.5384 437.7981 299.2595 443.9492 293.8715 450.8068 C 289.6101 456.2315 285.8682 462.1779 283.6539 468.6925 C 283.3991 469.4428 283.1647 470.2009 282.9515 470.9661 C 282.8619 471.2873 282.7772 471.6304 282.8788 471.9473 C 283.0271 472.4132 283.5169 472.6652 283.9631 472.8671 C 291.18 476.1282 298.596 478.9475 306.1574 481.3031 C 307.1224 481.6031 308.1798 481.8946 309.1193 481.524 C 310.6454 480.9233 310.6066 477.564 310.9151 476.196 " fill="#afbdc6"/>
<path transform="matrix(1,0,0,-1,0,792)" d="M 318.7539 515.8045 C 318.4821 516.9113 317.2595 517.4372 316.176 516.9134 L 296.304 507.3035 C 295.4181 506.8751 294.9367 505.884 295.1774 504.9854 L 297.5711 496.0355 L 278.6739 486.9904 C 278.8073 487.1153 278.7981 487.8713 278.7889 488.724 C 278.7798 489.5845 278.7706 490.5452 278.9082 491.0548 C 279.3953 492.8654 279.4384 494.3979 279.4052 496.2819 C 279.1927 508.2904 278.0718 520.9405 269.5264 530.1904 C 255.78 545.0696 241.6376 559.6158 227.5525 574.1732 C 213.2647 588.9402 198.8174 603.5562 184.0468 617.8426 C 183.7518 618.1285 183.456 618.4136 183.1602 618.6995 C 175.8445 625.7633 168.4518 632.7466 161.0816 639.7525 C 157.2494 643.3955 153.4228 647.0442 149.616 650.7141 C 145.5233 654.6586 141.4638 656.9238 142.6609 663.3113 C 143.7296 669.0141 146.9838 674.9668 150.9995 679.1012 C 154.2953 682.4951 158.3315 684.9586 162.8054 686.4748 C 167.6358 688.1125 173.5751 690.7489 177.4151 686.0386 C 179.0993 683.9718 180.7736 681.9304 182.5969 679.9814 C 208.8007 649.7471 234.9812 618.9184 262.0722 589.272 C 263.9929 587.1706 265.9122 585.0685 267.8266 582.9614 C 274.9038 575.1706 287.46 562.3242 294.7941 554.7664 C 309.0812 540.0409 318.4468 539.2362 334.5784 531.6882 C 341.0915 528.6409 347.7261 525.8569 354.4271 523.2501 L 320.8708 507.1878 L 318.7539 515.8045 " fill="#435b6e"/>
<path transform="matrix(1,0,0,-1,0,792)" d="M 374.5772 496.8191 C 378.3325 484.848 366.8718 452.964 364.4979 444.6487 C 362.1233 436.3341 355.2755 440.7579 355.2755 440.7579 C 354.8944 442.1527 354.4969 443.5426 354.096 444.9318 C 353.0111 448.6892 351.8824 452.4346 350.6958 456.1616 C 349.8289 458.8856 348.9381 461.6026 348.0346 464.3146 C 347.5835 465.6706 347.1395 467.0301 346.6722 468.3805 C 346.2981 469.4605 345.6092 470.4106 345.1398 471.4687 C 344.6174 472.6468 344.0944 473.8256 343.4732 474.9551 C 342.2887 477.1073 340.7111 479.4085 338.8581 481.0475 C 338.208 481.6235 336.5951 482.4445 335.6584 481.9779 C 335.5482 481.9228 284.2673 456.3621 284.2673 456.3621 C 283.6581 456.0586 282.9311 456.4419 282.8372 457.116 L 278.6739 486.9904 C 278.676 486.9861 279.9035 485.7339 283.6369 486.5167 C 286.1908 487.0532 288.684 487.8713 291.132 488.7678 C 293.6894 489.7038 296.1932 490.7718 298.6885 491.8595 L 300.6812 484.4118 C 301.2932 482.1226 303.8795 481.0984 306.1002 482.2652 L 323.1642 491.2278 C 324.0007 491.6668 324.4511 492.612 324.2386 493.4795 L 322.0998 502.1838 C 334.5692 508.0652 346.7456 514.5678 358.5671 521.6612 C 357.1842 522.1828 355.8049 522.7144 354.4271 523.2501 L 355.9376 523.9729 C 362.4473 519.9099 370.8226 508.7901 374.5772 496.8191 " fill="#c1d0db"/>
<path transform="matrix(1,0,0,-1,0,792)" d="M 298.6885 491.8595 C 296.1932 490.7718 293.6894 489.7038 291.132 488.7678 C 288.684 487.8713 286.1908 487.0532 283.6369 486.5167 C 279.9035 485.7339 278.676 486.9861 278.6739 486.9904 L 297.5711 496.0355 L 298.6885 491.8595 " fill="#c1d0db"/>
<path transform="matrix(1,0,0,-1,0,792)" d="M 322.0998 502.1838 L 320.8708 507.1885 L 354.4271 523.2501 C 355.8049 522.7144 357.1842 522.1828 358.5671 521.6612 C 346.7456 514.5678 334.5692 508.0652 322.0998 502.1838 " fill="#c1d0db"/>
<path transform="matrix(1,0,0,-1,0,792)" d="M 228.0233 571.4421 C 227.7656 571.7089 227.5073 571.9751 227.2496 572.2419 C 212.0301 587.9718 196.6412 603.5407 180.9085 618.7581 C 180.5936 619.0624 180.2781 619.3666 179.9633 619.6708 C 172.1711 627.1948 164.2969 634.6334 156.4461 642.0967 C 152.364 645.9769 148.2875 649.8635 144.2322 653.772 C 139.8734 657.9741 135.5492 660.3861 136.8247 667.1908 C 137.9626 673.2649 141.4292 679.6059 145.7061 684.0092 C 149.2172 687.6247 153.5167 690.2499 158.2814 691.8649 C 163.4266 693.6085 169.7534 696.4172 173.844 691.3991 C 175.6384 689.1974 177.4207 687.0233 179.364 684.9473 C 204.2407 656.244 230.2701 625.8155 255.8118 597.4461 L 228.0233 571.4421 " fill="#e29530"/>
<path transform="matrix(1,0,0,-1,0,792)" d="M 167.9689 675.1609 C 164.6485 678.7087 159.0798 678.8936 155.5313 675.5732 C 151.9821 672.2527 151.7979 666.684 155.1191 663.1355 C 158.4395 659.5871 164.0075 659.4021 167.556 662.7233 C 171.1045 666.0438 171.2894 671.6125 167.9689 675.1609 " fill="#ffffff"/>
<path transform="matrix(1,0,0,-1,0,792)" d="M 240.2555 572.4332 C 240.2555 573.4821 240.6727 574.5296 241.5021 575.3061 L 249.9649 583.2254 C 251.5504 584.7092 254.0358 584.6294 255.5195 583.0433 C 265.0066 572.9019 296.6209 539.2708 300.3678 537.4151 C 303.6812 535.7746 306.9296 533.9965 310.1838 532.2424 C 312.0452 531.2393 320.3647 528.2089 321.1228 526.3864 C 321.2386 526.1075 321.2929 525.8315 321.2929 525.5598 C 321.2929 521.8398 311.1078 518.8172 308.6478 517.6341 C 303.4094 515.1155 298.1372 512.6654 292.8522 510.2442 C 291.2033 509.4889 289.2925 510.5019 288.9868 512.2892 C 288.3113 516.2428 286.7075 522.6205 283.0355 527.0633 C 278.2991 532.7936 250.5071 560.5835 241.4104 569.6534 C 240.6388 570.4221 240.2555 571.4287 240.2555 572.4332 " fill="#526879"/>
<path transform="matrix(1,0,0,-1,0,792)" d="M 167.4981 674.6273 C 164.3428 677.9979 159.0339 678.1744 155.6626 675.0198 C 152.292 671.8652 152.1162 666.5562 155.2701 663.1849 C 158.4247 659.8136 163.7344 659.6372 167.1049 662.7925 C 170.4762 665.9464 170.6527 671.256 167.4981 674.6273 Z M 168.2195 675.3028 C 171.7461 671.5334 171.5499 665.5976 167.7805 662.0704 C 164.0111 658.5431 158.0753 658.74 154.5487 662.5094 C 151.0214 666.2781 151.2184 672.2146 154.9871 675.7412 C 158.7565 679.2685 164.6922 679.0715 168.2195 675.3028 " fill="#435b6e"/>
<path transform="matrix(1,0,0,-1,0,792)" d="M 456.0798 402.1793 C 446.0774 416.7762 449.7402 436.7555 464.4113 446.8031 C 479.0598 456.7871 499.008 453.0776 508.9969 438.4412 C 519.0579 423.8513 515.3351 403.8671 500.7191 393.8555 C 486.0685 383.7847 466.0849 387.552 456.0798 402.1793 Z M 476.2249 348.9946 C 478.9666 348.7419 481.6984 348.6776 484.3899 348.756 L 488.4176 362.5461 L 502.3052 365.7106 L 511.9228 355.0391 C 516.9974 357.3113 521.76 360.1708 526.1386 363.5224 L 521.2722 377.052 L 530.6358 387.7885 L 544.7111 384.8089 C 547.3412 389.4127 549.4976 394.3574 551.0626 399.5711 L 539.2024 407.7254 L 540.576 421.9108 L 553.7626 427.692 C 553.1795 433.2791 551.9605 438.6981 550.1513 443.8638 L 535.7711 443.4833 L 528.5266 455.7621 L 535.7619 468.18 C 532.08 472.272 527.9216 475.9553 523.3426 479.1219 L 511.9475 470.3816 L 498.8774 476.0315 L 497.4191 490.3334 C 494.6449 490.9214 491.7911 491.3739 488.8673 491.6358 C 486.1976 491.8574 483.5626 491.9336 480.948 491.8828 L 476.8793 478.0927 L 462.9819 474.9734 L 453.3967 485.7056 C 448.3186 483.4235 443.5101 480.5859 439.1202 477.2336 L 443.9428 463.6835 L 434.5482 452.9739 L 420.4772 456.0127 C 417.7553 451.2628 415.524 446.1755 413.9238 440.7995 L 425.8193 432.6791 L 424.5056 418.488 L 411.3332 412.6807 C 411.9416 407.0944 413.1882 401.6802 415.008 396.5167 L 429.3861 396.9388 L 436.6828 384.6925 L 429.4821 372.2562 C 433.1929 368.16 437.3584 364.4845 441.936 361.3391 L 453.2972 370.1428 L 466.4153 364.5374 L 467.8934 350.2235 C 470.6231 349.6666 473.4028 349.236 476.2249 348.9946 " fill="#516784"/>
<path transform="matrix(1,0,0,-1,0,792)" d="M 447.5958 396.3656 C 434.3781 415.6496 439.3002 442.0334 458.5906 455.2504 C 477.9169 468.5068 504.2732 463.5755 517.5099 444.2915 C 530.7289 424.9899 525.7821 398.5899 506.4861 385.3708 C 487.2 372.1468 460.8148 377.064 447.5958 396.3656 Z M 509.0859 381.5732 C 530.4784 396.2287 535.9631 425.4974 521.3082 446.8962 C 506.6329 468.2753 477.4136 473.7424 455.9859 459.0452 C 434.5998 444.3925 429.1433 415.1421 443.7981 393.7624 C 458.4522 372.3642 487.7047 366.912 509.0859 381.5732 " fill="#d8d9da"/>
<path transform="matrix(1,0,0,-1,0,792)" d="M 434.9231 453.4016 L 434.5482 452.9739 L 420.5696 455.7586 L 420.4772 456.0127 C 417.7553 451.2628 415.524 446.1755 413.9238 440.7995 L 414.1708 440.9005 L 425.8193 432.6791 L 424.5056 418.488 L 411.5605 412.5113 L 411.3332 412.6807 C 411.9416 407.0944 413.1882 401.6802 415.008 396.5167 L 415.1365 396.7376 L 429.3861 396.9388 L 436.6828 384.6925 L 429.7235 372.2414 L 429.4821 372.2562 C 433.1929 368.16 437.3584 364.4845 441.936 361.3391 L 441.9 361.5939 L 453.2972 370.1428 L 466.4153 364.5374 L 468.0904 350.3838 L 467.8934 350.2235 C 470.6231 349.6666 473.4028 349.236 476.2249 348.9946 C 478.9666 348.7419 481.6984 348.6776 484.3899 348.756 L 484.2064 348.9304 L 485.4 352.7908 C 450.4765 383.8151 438.4482 423.0296 434.9231 453.4016 " fill="#3e5770"/>
<path transform="matrix(1,0,0,-1,0,792)" d="M 443.7981 393.7624 C 448.8254 386.4219 455.5701 380.9584 463.1259 377.5398 C 461.0788 380.4106 459.1687 383.3089 457.3864 386.2249 C 453.6762 388.9631 450.348 392.3478 447.5958 396.3664 C 441.5795 405.1433 439.3334 415.3892 440.4769 425.1967 C 439.5275 428.5475 438.6988 431.8609 437.9802 435.12 C 433.5205 421.6616 435.1701 406.3496 443.7981 393.7624 " fill="#b1b2b3"/>
<path transform="matrix(1,0,0,-1,0,792)" d="M 538.7944 442.6158 L 550.4047 442.5889 C 550.4047 442.5889 553.1576 435.3889 553.3962 430.1153 C 553.3962 430.1153 551.3287 438.8562 538.7944 442.6158 " fill="#65829e"/>
<path transform="matrix(1,0,0,-1,0,792)" d="M 221.6598 624.6028 L 216.3431 620.9824 L 215.3047 615.3854 L 214.0228 614.9908 L 213.4984 616.56 L 211.3242 612.1475 L 207.72 610.4979 L 203.2136 613.1442 L 201.2414 618.2153 L 204.372 622.4936 L 210.0904 625.0475 L 217.1598 630.3191 L 221.6598 624.6028 " fill="#7b4f34"/>
<path transform="matrix(1,0,0,-1,0,792)" d="M 222.3402 620.3767 L 273.8605 658.1344 L 298.7386 653.9612 L 309.9134 677.6414 L 266.7106 686.5172 L 256.4866 682.2515 L 211.1633 630.3614 L 222.3402 620.3767 " fill="#7da4b2"/>
<path transform="matrix(1,0,0,-1,0,792)" d="M 65.40635 475.9779 C 65.40635 479.6252 66.19271 490.2889 69.29506 491.9901 C 72.97624 494.0096 73.53318 472.5311 73.59459 470.5645 C 73.69765 467.2765 73.74424 463.9856 73.74424 460.6948 C 73.74424 459.696 73.74 458.6965 73.73153 457.6976 C 73.73153 457.6553 73.73082 457.6129 73.73082 457.5692 C 73.73082 456.9875 73.76047 456.2795 73.79082 455.5129 C 73.82047 454.7471 73.85012 453.9226 73.85012 453.1031 C 73.85012 451.3285 73.71035 449.5821 73.12871 448.5318 C 72.72918 447.8096 72.012 447.2231 71.29906 447.408 C 70.64541 447.5774 70.02494 448.5452 69.516 449.6111 C 69.04659 450.5958 68.67318 451.6645 68.45647 452.2687 C 67.56988 454.7428 66.95012 457.3405 66.51388 459.9748 C 65.66471 465.1066 65.51365 470.3548 65.41059 475.572 C 65.40776 475.6948 65.40635 475.8311 65.40635 475.9779 " fill="#cacaca"/>
<path transform="matrix(1,0,0,-1,0,792)" d="M 83.26376 465.4511 C 73.69341 465.4511 65.93576 473.2087 65.93576 482.7791 C 65.93576 492.3487 73.69341 500.1064 83.26376 500.1064 C 92.83271 500.1064 100.5911 492.3487 100.5911 482.7791 C 100.5911 473.2087 92.83271 465.4511 83.26376 465.4511 " fill="#435b6e"/>
<path transform="matrix(1,0,0,-1,0,792)" d="M 72.94588 489.4546 L 83.88635 495.0522 L 94.20353 488.376 L 93.58094 476.1028 L 82.64047 470.5052 L 72.32329 477.1814 L 72.94588 489.4546 " fill="#2e414c"/>
<path transform="matrix(1,0,0,-1,0,792)" d="M 83.26376 476.4325 C 79.75835 476.4325 76.91718 479.2736 76.91718 482.7791 C 76.91718 486.2838 79.75835 489.1249 83.26376 489.1249 C 86.76847 489.1249 89.60965 486.2838 89.60965 482.7791 C 89.60965 479.2736 86.76847 476.4325 83.26376 476.4325 " fill="#22323a"/>
<path transform="matrix(1,0,0,-1,0,792)" d="M 331.3292 438.0254 C 321.2584 438.0254 313.0941 446.1896 313.0941 456.2605 C 313.0941 466.3313 321.2584 474.4955 331.3292 474.4955 C 341.4007 474.4955 349.5649 466.3313 349.5649 456.2605 C 349.5649 446.1896 341.4007 438.0254 331.3292 438.0254 " fill="#435b6e"/>
<path transform="matrix(1,0,0,-1,0,792)" d="M 320.472 463.2861 L 331.9849 469.1767 L 342.8428 462.1511 L 342.1878 449.2348 L 330.6741 443.3442 L 319.8162 450.3699 L 320.472 463.2861 " fill="#2e414c"/>
<path transform="matrix(1,0,0,-1,0,792)" d="M 331.3292 449.5814 C 327.6409 449.5814 324.6508 452.5722 324.6508 456.2605 C 324.6508 459.9494 327.6409 462.9395 331.3292 462.9395 C 335.0181 462.9395 338.0082 459.9494 338.0082 456.2605 C 338.0082 452.5722 335.0181 449.5814 331.3292 449.5814 " fill="#22323a"/>
<path transform="matrix(1,0,0,-1,0,792)" d="M 112.3631 327.6748 L 109.7527 366.9791 L 127.5932 366.9791 L 125.1805 327.6748 L 119.5553 325.3384 C 118.9913 325.104 118.3567 325.1068 117.7948 325.3475 L 112.3631 327.6748 " fill="#2e414c"/>
<path transform="matrix(1,0,0,-1,0,792)" d="M 111.7976 333.5146 C 117.0261 334.5861 122.3414 335.7776 127.7626 337.0948 C 130.0772 337.6574 129.444 341.388 127.0496 340.7852 C 121.4576 339.3784 115.9772 338.1071 110.5913 336.9635 C 108.3635 336.4906 109.6384 333.0706 111.7976 333.5146 " fill="#435b6e"/>
<path transform="matrix(1,0,0,-1,0,792)" d="M 112.2628 327.0339 C 117.1722 327.9791 122.1579 329.0266 127.236 330.1849 C 129.4016 330.6784 128.7882 333.9438 126.5534 333.4179 C 121.3256 332.1868 116.1953 331.0722 111.1454 330.0692 C 109.0553 329.6541 110.2327 326.6435 112.2628 327.0339 " fill="#435b6e"/>
<path transform="matrix(1,0,0,-1,0,792)" d="M 110.7226 348.0056 C 116.5913 349.5191 122.5885 351.2104 128.7409 353.0908 C 131.3795 353.8969 130.7675 359.2962 128.0167 358.4188 C 121.6193 356.3767 115.3885 354.5435 109.2974 352.9024 C 106.788 352.2268 108.3064 347.3816 110.7226 348.0056 " fill="#435b6e"/>
<path transform="matrix(1,0,0,-1,0,792)" d="M 111.2696 340.8953 C 116.8588 342.1235 122.5504 343.4887 128.364 345.0014 C 130.8508 345.6487 130.1972 349.9496 127.6214 349.2529 C 121.6087 347.6301 115.728 346.1654 109.9567 344.8504 C 107.5722 344.3075 108.9621 340.3892 111.2696 340.8953 " fill="#435b6e"/>
<path transform="matrix(1,0,0,-1,0,792)" d="M 123.2132 361.3758 L 126.8986 360.4694 L 126.7567 358.0186 C 125.6167 357.6586 124.4824 357.3049 123.3522 356.9576 L 123.2132 361.3758 M 123.5238 351.5308 C 124.4894 351.8132 125.4586 352.0998 126.4313 352.392 L 126.2287 348.8795 C 125.3591 348.6473 124.4929 348.4186 123.6289 348.1934 L 123.5238 351.5308 M 123.7666 343.8296 C 124.4986 344.0125 125.2327 344.1974 125.9682 344.3845 L 125.7416 340.4584 C 125.1226 340.3045 124.5042 340.152 123.8873 340.0016 L 123.7666 343.8296 M 124.0073 336.1984 C 124.5092 336.3162 125.0118 336.4348 125.5158 336.5541 L 125.3174 333.1285 C 124.9158 333.0346 124.5141 332.9421 124.1132 332.8496 L 124.0073 336.1984 " fill="#4d5d67"/>
<path transform="matrix(1,0,0,-1,0,792)" d="M 123.8873 340.0016 C 124.5042 340.152 125.1226 340.3045 125.7416 340.4584 L 125.5158 336.5541 C 125.0118 336.4348 124.5092 336.3162 124.0073 336.1984 L 123.8873 340.0016 " fill="#5f7384"/>
<path transform="matrix(1,0,0,-1,0,792)" d="M 124.2882 327.3042 L 124.2896 327.3049 L 124.2882 327.3042 " fill="#ffffff"/>
<path transform="matrix(1,0,0,-1,0,792)" d="M 124.2184 329.5073 C 124.5184 329.5736 124.8191 329.64 125.1198 329.7071 L 125.0047 327.7136 L 124.2896 327.3049 L 124.2882 327.3042 L 124.2184 329.5073 " fill="#4d5d67"/>
<path transform="matrix(1,0,0,-1,0,792)" d="M 124.1132 332.8496 C 124.5141 332.9421 124.9158 333.0346 125.3174 333.1285 L 125.1198 329.7071 C 124.8191 329.64 124.5184 329.5736 124.2184 329.5073 L 124.1132 332.8496 " fill="#5f7384"/>
<path transform="matrix(1,0,0,-1,0,792)" d="M 123.3522 356.9576 C 124.4824 357.3049 125.6167 357.6586 126.7567 358.0186 L 126.4313 352.392 C 125.4586 352.0998 124.4894 351.8132 123.5238 351.5308 L 123.3522 356.9576 " fill="#5f7384"/>
<path transform="matrix(1,0,0,-1,0,792)" d="M 123.6289 348.1934 C 124.4929 348.4186 125.3591 348.6473 126.2287 348.8795 L 125.9682 344.3845 C 125.2327 344.1974 124.4986 344.0125 123.7666 343.8296 L 123.6289 348.1934 " fill="#5f7384"/>
<path transform="matrix(1,0,0,-1,0,792)" d="M 136.2184 377.2553 C 133.3016 382.4633 125.9852 385.5416 119.0866 385.5416 C 112.1866 385.5416 104.8701 382.4633 101.9534 377.2553 C 97.53247 369.3593 104.0329 359.1755 119.0866 359.1755 C 134.1402 359.1755 140.6407 369.3593 136.2184 377.2553 " fill="#5c7789"/>
<path transform="matrix(1,0,0,-1,0,792)" d="M 119.0866 363.6 C 104.0329 363.6 97.53247 372.3925 101.9534 379.2092 C 104.8701 383.7049 112.1866 386.3633 119.0866 386.3633 C 125.9852 386.3633 133.3016 383.7049 136.2184 379.2092 C 140.6407 372.3925 134.1402 363.6 119.0866 363.6 " fill="#435b6e"/>
<path transform="matrix(1,0,0,-1,0,792)" d="M 110.1621 382.5155 L 119.5736 384.7108 L 128.7445 382.0391 L 130.9913 374.7981 L 118.2501 369.7786 L 106.7944 375.6078 L 110.1621 382.5155 " fill="#2e414c"/>
<path transform="matrix(1,0,0,-1,0,792)" d="M 119.0866 375.0494 C 115.0751 375.0494 112.3009 377.0633 112.8113 379.2092 C 113.2496 381.0551 116.0351 382.3722 119.0866 382.3722 C 122.1367 382.3722 124.9221 381.0551 125.3612 379.2092 C 125.8708 377.0633 123.0974 375.0494 119.0866 375.0494 " fill="#22323a"/>
<path transform="matrix(1,0,0,-1,0,792)" d="M 172.752 377.5405 L 209.6259 399.0741 L 217.3849 385.5459 L 180.5118 364.0122 L 173.9598 367.2939 C 172.8649 367.8416 172.2049 368.9915 172.2833 370.2134 L 172.752 377.5405 " fill="#2e414c"/>
<path transform="matrix(1,0,0,-1,0,792)" d="M 195.7962 391.5981 C 200.0061 387.1384 204.3134 382.7626 208.7181 378.4694 C 210.5675 376.6673 213.9579 379.8247 212.1064 381.6304 C 207.7016 385.9228 203.3944 390.2986 199.1838 394.7576 C 197.4169 396.6289 194.0315 393.4659 195.7962 391.5981 " fill="#435b6e"/>
<path transform="matrix(1,0,0,-1,0,792)" d="M 187.7125 386.9612 C 191.9224 382.5021 196.2296 378.1256 200.6336 373.8332 C 202.4824 372.0311 205.8741 375.1885 204.0226 376.9934 C 199.6179 381.2859 195.3106 385.6616 191.1 390.1214 C 189.3332 391.992 185.9471 388.8296 187.7125 386.9612 " fill="#435b6e"/>
<path transform="matrix(1,0,0,-1,0,792)" d="M 179.6273 382.3242 C 183.8379 377.8652 188.1459 373.4887 192.5499 369.1962 C 194.3986 367.3948 197.7904 370.5515 195.9381 372.3565 C 191.5341 376.6496 187.2261 381.0254 183.0162 385.4852 C 181.2494 387.3558 177.8633 384.1927 179.6273 382.3242 " fill="#435b6e"/>
<path transform="matrix(1,0,0,-1,0,792)" d="M 171.5435 377.688 C 175.7541 373.2282 180.0614 368.8525 184.4661 364.5593 C 186.3148 362.7572 189.7066 365.9153 187.8544 367.7202 C 183.4496 372.0134 179.1424 376.3892 174.9325 380.8475 C 173.1656 382.7195 169.7795 379.5565 171.5435 377.688 " fill="#435b6e"/>
<path transform="matrix(1,0,0,-1,0,792)" d="M 173.2214 367.5988 L 173.3626 367.6864 C 173.5433 367.5346 173.7431 367.4026 173.9598 367.2939 L 175.4245 366.5605 L 175.3998 366.5485 L 173.2214 367.5988 " fill="#ffffff"/>
<path transform="matrix(1,0,0,-1,0,792)" d="M 173.3626 367.6864 L 178.2586 370.7301 C 178.8946 370.0849 179.5334 369.4412 180.1744 368.7995 L 175.4245 366.5605 L 173.9598 367.2939 C 173.7431 367.4026 173.5433 367.5346 173.3626 367.6864 M 182.292 373.2381 L 186.1045 375.6078 C 187.0052 374.6936 187.9101 373.7831 188.8186 372.876 L 184.6256 370.8988 C 183.8449 371.676 183.0664 372.456 182.292 373.2381 M 190.1372 378.1151 L 193.9511 380.4861 C 195.1151 379.3024 196.2861 378.1242 197.4649 376.9525 L 193.2727 374.976 C 192.2224 376.0179 191.1769 377.064 190.1372 378.1151 M 197.9831 382.9934 L 201.7976 385.3645 C 203.2249 383.9111 204.6635 382.4654 206.1127 381.0304 L 201.9219 379.0546 C 200.6005 380.3598 199.2868 381.6727 197.9831 382.9934 M 205.8289 387.8711 L 209.2744 390.0134 L 213.3304 384.4334 L 210.5718 383.1332 C 208.9779 384.7009 207.3967 386.2807 205.8289 387.8711 " fill="#3e505a"/>
<path transform="matrix(1,0,0,-1,0,792)" d="M 201.7976 385.3645 L 205.8289 387.8711 C 207.3967 386.2807 208.9779 384.7009 210.5718 383.1332 L 206.1127 381.0304 C 204.6635 382.4654 203.2249 383.9111 201.7976 385.3645 " fill="#526879"/>
<path transform="matrix(1,0,0,-1,0,792)" d="M 193.9511 380.4861 L 197.9831 382.9934 C 199.2868 381.6727 200.6005 380.3598 201.9219 379.0546 L 197.4649 376.9525 C 196.2861 378.1242 195.1151 379.3024 193.9511 380.4861 " fill="#526879"/>
<path transform="matrix(1,0,0,-1,0,792)" d="M 186.1045 375.6078 L 190.1372 378.1151 C 191.1769 377.064 192.2224 376.0179 193.2727 374.976 L 188.8186 372.876 C 187.9101 373.7831 187.0052 374.6936 186.1045 375.6078 " fill="#526879"/>
<path transform="matrix(1,0,0,-1,0,792)" d="M 178.2586 370.7301 L 182.292 373.2381 C 183.0664 372.456 183.8449 371.676 184.6256 370.8988 L 180.1744 368.7995 C 179.5334 369.4412 178.8946 370.0849 178.2586 370.7301 " fill="#526879"/>
<path transform="matrix(1,0,0,-1,0,792)" d="M 232.812 382.0151 C 235.224 387.2894 233.4416 395.4868 229.4824 401.7529 C 225.5245 408.0184 218.9118 413.112 213.1525 413.1346 C 204.4207 413.1699 200.1614 402.1313 208.7986 388.4591 C 217.4351 374.7868 229.1541 374.0181 232.812 382.0151 " fill="#5c7789"/>
<path transform="matrix(1,0,0,-1,0,792)" d="M 212.2694 390.6904 C 203.6322 404.3619 206.8002 414.6988 214.6849 414.1193 C 219.8866 413.7381 226.1689 408.4327 230.1268 402.1666 C 234.0854 395.9012 236.1981 387.9162 234.3445 383.0005 C 231.5336 375.5471 220.9066 377.0174 212.2694 390.6904 " fill="#435b6e"/>
<path transform="matrix(1,0,0,-1,0,792)" d="M 220.7845 407.6111 L 227.9068 400.1696 L 231.0713 390.4934 L 226.6807 384.8026 L 215.4325 393.8428 L 213.4327 407.1868 L 220.7845 407.6111 " fill="#2e414c"/>
<path transform="matrix(1,0,0,-1,0,792)" d="M 220.0475 395.7416 C 217.7456 399.3847 217.7351 402.9191 219.7108 403.5374 C 221.4106 404.0704 224.0414 402.204 225.792 399.4334 C 227.5419 396.6628 228.1073 393.4687 226.9108 392.1395 C 225.5195 390.5951 222.3494 392.0986 220.0475 395.7416 " fill="#22323a"/>
<path transform="matrix(1,0,0,-1,0,792)" d="M 259.7626 423.1122 C 255.8739 427.176 256.0165 433.6235 260.0809 437.5122 C 264.1454 441.4002 270.5922 441.2584 274.4802 437.1939 C 278.3689 433.1294 278.2271 426.6826 274.1626 422.7939 C 270.0981 418.9052 263.6506 419.0478 259.7626 423.1122 M 280.0158 416.5391 C 287.3061 423.6656 287.4395 435.3529 280.3129 442.6433 C 273.1864 449.9336 261.4991 450.0664 254.2087 442.9398 C 246.9184 435.8132 246.7856 424.1259 253.9122 416.8355 C 261.0381 409.5452 272.7261 409.4125 280.0158 416.5391 " fill="#3c6794"/>
<path transform="matrix(1,0,0,-1,0,792)" d="M 265.5607 413.7296 L 282.6685 430.3913 L 284.2885 429.348 C 292.1944 424.2572 301.1005 421.0341 310.3588 419.3845 C 315.5951 418.4513 320.6506 415.8678 324.8195 411.6028 L 406.3087 328.2395 C 409.9765 324.4864 412.4195 319.9934 413.6428 315.2534 C 415.6701 307.4026 418.6638 299.8341 422.9068 292.9249 L 432.9445 276.5781 L 415.8664 259.8854 L 399.7532 270.2908 C 392.9421 274.6906 385.4435 277.8551 377.6407 280.0602 C 372.9296 281.3915 368.4925 283.9348 364.8247 287.688 L 285.2181 369.1242 C 280.8819 373.5607 278.2581 379.0341 277.3362 384.7249 C 275.9894 393.0367 273.252 401.0605 268.8833 408.2569 L 265.5607 413.7296 " fill="#3c6794"/>
<path transform="matrix(1,0,0,-1,0,792)" d="M 405.6607 266.4762 L 405.6812 266.4628 L 405.6607 266.4755 L 405.6607 266.4762 " fill="#294c6b"/>
<path transform="matrix(1,0,0,-1,0,792)" d="M 427.0285 286.2127 L 427.0285 286.2127 L 427.0292 286.2113 L 427.0285 286.2127 " fill="#375f88"/>
<path transform="matrix(1,0,0,-1,0,792)" d="M 405.5986 267.9946 C 405.5986 272.5518 407.2751 277.1174 410.6562 280.6871 C 415.0228 285.2958 421.2007 287.1579 427.0285 286.2127 L 427.0292 286.2113 L 427.4626 285.4426 C 421.7435 286.2522 415.7322 284.3732 411.4574 279.8612 C 408.0762 276.2915 406.3991 271.7259 406.3991 267.1694 C 406.3991 266.7769 406.4118 266.3852 406.4365 265.9941 L 405.6812 266.4628 L 405.6607 266.4762 C 405.6191 266.9809 405.5986 267.4885 405.5986 267.9946 " fill="#375f88"/>
<path transform="matrix(1,0,0,-1,0,792)" d="M 267.0438 411.2795 C 267.0452 411.2795 267.0466 411.2795 267.048 411.2795 L 267.0678 411.2471 L 267.0438 411.2795 " fill="#e1e1e1"/>
<path transform="matrix(1,0,0,-1,0,792)" d="M 266.4649 412.0871 C 266.4953 412.0871 266.5264 412.0878 266.5567 412.0885 L 267.048 411.2795 C 267.0466 411.2795 267.0452 411.2795 267.0438 411.2795 L 266.4649 412.0871 " fill="#355b83"/>
<path transform="matrix(1,0,0,-1,0,792)" d="M 286.2847 428.1148 L 286.2925 428.1106 L 286.2925 428.1099 C 286.2896 428.1113 286.2868 428.1134 286.2847 428.1148 " fill="#527c9f"/>
<path transform="matrix(1,0,0,-1,0,792)" d="M 266.5567 412.0885 C 271.2699 412.1591 275.8906 413.6555 279.4355 417.3042 C 282.5993 420.5612 284.2447 424.7824 284.4967 429.0318 L 286.2847 428.1148 C 286.2868 428.1134 286.2896 428.1113 286.2925 428.1099 C 286.152 423.672 284.4205 419.2694 281.0824 415.8339 C 277.2748 411.9148 272.6584 410.304 267.5972 410.5087 L 267.0678 411.2471 L 267.048 411.2795 L 266.5567 412.0885 " fill="#355b83"/>
<path transform="matrix(1,0,0,-1,0,792)" d="M 411.4574 279.8612 C 404.4466 272.4593 404.7628 260.7762 412.164 253.7647 C 419.5652 246.7539 431.2489 247.0701 438.2605 254.4713 C 445.2713 261.8725 444.9551 273.5562 437.5539 280.5678 C 430.1527 287.5786 418.4689 287.2624 411.4574 279.8612 " fill="#3c6794"/>
<path transform="matrix(1,0,0,-1,0,792)" d="M 424.5388 252.7073 C 416.5539 252.8838 410.2235 259.5 410.4 267.4856 C 410.5765 275.4713 417.1927 281.8024 425.1784 281.6259 C 433.164 281.4494 439.4944 274.8325 439.3179 266.8468 C 439.1414 258.8612 432.5252 252.5308 424.5388 252.7073 " fill="#435b6e"/>
<path transform="matrix(1,0,0,-1,0,792)" d="M 416.3725 272.928 L 425.6047 277.3969 L 434.0915 271.6348 L 433.3454 261.4052 L 424.1132 256.9362 L 415.6264 262.6969 L 416.3725 272.928 " fill="#2e414c"/>
<path transform="matrix(1,0,0,-1,0,792)" d="M 424.7421 261.8704 C 421.8169 261.9353 419.4988 264.3586 419.5638 267.2831 C 419.6273 270.2082 422.0513 272.5264 424.9765 272.4621 C 427.9009 272.3972 430.2191 269.9739 430.1541 267.0494 C 430.0906 264.1249 427.6666 261.8061 424.7421 261.8704 " fill="#22323a"/>
<path transform="matrix(1,0,0,-1,0,792)" d="M 432.18 270.3367 L 431.2645 262.4111 L 423.9431 259.2416 L 417.5379 263.9965 L 418.4534 271.9214 L 425.7741 275.0915 L 432.18 270.3367 " fill="#2a557c"/>
<path transform="matrix(1,0,0,-1,0,792)" d="M 430.0786 269.4261 L 429.4256 263.7762 L 424.2064 261.516 L 419.6393 264.9064 L 420.2922 270.5569 L 425.5115 272.8165 L 430.0786 269.4261 " fill="#91a6ba"/>
<path transform="matrix(1,0,0,-1,0,792)" d="M 425.5115 272.8165 L 425.7741 275.0915 L 432.18 270.3367 L 431.2645 262.4111 L 429.4256 263.7762 L 430.0786 269.4261 L 425.5115 272.8165 " fill="#738fa9"/>
<path transform="matrix(1,0,0,-1,0,792)" d="M 424.8593 267.1659 L 425.5115 272.8165 L 430.0786 269.4261 L 429.4256 263.7762 L 424.8593 267.1659 " fill="#b7c4d2"/>
</g>
</g>
</g>
</svg>
